<svg width="41" height="41" viewBox="0 0 41 41" fill="none" xmlns="http://www.w3.org/2000/svg">
<path d="M20.5 41C31.8044 41 41 31.8044 41 20.5C41 9.19561 31.8044 0 20.5 0C9.19561 0 0 9.19721 0 20.5C0 31.8028 9.19561 41 20.5 41ZM20.5 3.17582C30.0513 3.17582 37.8242 10.9471 37.8242 20.5C37.8242 30.0529 30.0513 37.8242 20.5 37.8242C10.9471 37.8242 3.17582 30.0529 3.17582 20.5C3.17582 10.9471 10.9487 3.17582 20.5 3.17582Z" fill="#0D1821"/>
<path d="M11.433 18.3087L19.3726 26.2482C19.9919 26.8644 20.9923 26.8644 21.6116 26.2482L29.5512 18.3087C30.0609 17.7148 30.0609 16.8367 29.5512 16.2428C28.9811 15.5774 27.9776 15.4997 27.3122 16.0697L20.5 22.8818L13.672 16.0697C13.0527 15.4535 12.0524 15.4535 11.433 16.0697C10.8169 16.689 10.8169 17.6894 11.433 18.3087Z" fill="#0D1821"/>
</svg>
