<svg width="25" height="25" viewBox="0 0 25 25" fill="none" xmlns="http://www.w3.org/2000/svg">
<path d="M12.5 0C5.60781 0 0 5.60781 0 12.5C0 19.3922 5.60781 25 12.5 25C19.3922 25 25 19.3922 25 12.5C25 5.60781 19.3922 0 12.5 0ZM18.2344 18.0438C18.0813 18.2609 17.8406 18.3766 17.5953 18.3766C17.4391 18.3766 17.2828 18.3313 17.1469 18.2344C14.2172 16.175 9.34375 16.0609 6.05313 16.8281C5.63594 16.9266 5.2125 16.6641 5.11562 16.2437C5.01875 15.8234 5.27812 15.4031 5.7 15.3047C9.31719 14.4672 14.7234 14.6203 18.0438 16.9563C18.3969 17.2047 18.4813 17.6906 18.2344 18.0438ZM19.7594 14.9953C19.6062 15.2078 19.3672 15.3203 19.125 15.3203C18.9656 15.3203 18.8078 15.2734 18.6687 15.1734C15.2703 12.7344 11.0953 12.1281 5.52344 13.2656C5.10313 13.3484 4.6875 13.0797 4.60156 12.6563C4.51406 12.2344 4.7875 11.8203 5.20938 11.7344C11.2359 10.5047 15.8016 11.1922 19.5797 13.9031C19.9297 14.1562 20.0109 14.6438 19.7594 14.9953ZM21.3 10.9016C21.1484 11.125 20.9016 11.2438 20.6531 11.2438C20.5016 11.2438 20.3484 11.2 20.2141 11.1094C15.9063 8.18594 9.35781 8.17188 5.11875 9.67188C4.7125 9.8125 4.26563 9.60156 4.12188 9.19375C3.97813 8.7875 4.19063 8.34062 4.59844 8.19687C9.20938 6.56719 16.3547 6.60156 21.0938 9.81563C21.45 10.0578 21.5406 10.5438 21.3 10.9016Z" fill="black"/>
</svg>
