<svg width="25" height="19" viewBox="0 0 25 19" fill="none" xmlns="http://www.w3.org/2000/svg">
<path d="M23.9375 2.5625C23.2594 1.35625 22.5234 1.13438 21.025 1.05C19.5281 0.948438 15.7641 0.90625 12.5031 0.90625C9.23594 0.90625 5.47031 0.948438 3.975 1.04844C2.47969 1.13438 1.74219 1.35469 1.05781 2.5625C0.359375 3.76719 0 5.84219 0 9.49531C0 9.49844 0 9.5 0 9.5C0 9.50313 0 9.50469 0 9.50469V9.50781C0 13.1453 0.359375 15.2359 1.05781 16.4281C1.74219 17.6344 2.47812 17.8531 3.97344 17.9547C5.47031 18.0422 9.23594 18.0938 12.5031 18.0938C15.7641 18.0938 19.5281 18.0422 21.0266 17.9562C22.525 17.8547 23.2609 17.6359 23.9391 16.4297C24.6438 15.2375 25 13.1469 25 9.50937C25 9.50937 25 9.50469 25 9.50156C25 9.50156 25 9.49844 25 9.49688C25 5.84219 24.6437 3.76719 23.9375 2.5625ZM9.375 14.1875V4.8125L17.1875 9.5L9.375 14.1875Z" fill="black"/>
</svg>
