<svg width="249" height="52" viewBox="0 0 249 52" fill="none" xmlns="http://www.w3.org/2000/svg">
<path d="M16.5734 0.308594V4.53633H10.8963V21.9719H5.67708V4.53633H0V0.308594H16.5734Z" fill="#FFFCFF"/>
<path d="M37.7501 0.308594V21.9719H32.5309V13.0535H24.4121V21.9719H19.1928V0.308594H24.4121V8.79493H32.5309V0.308594H37.7501Z" fill="#FFFCFF"/>
<path d="M46.7372 4.53633V8.91837H53.7267V12.9918H46.7372V17.7442H54.6424V21.9719H41.5179V0.308594H54.6424V4.53633H46.7372Z" fill="#FFFCFF"/>
<path d="M87.4472 0.308594V21.9719H82.228V8.98008L77.436 21.9719H73.224L68.4015 8.94922V21.9719H63.1823V0.308594H69.3477L75.3605 15.3063L81.3123 0.308594H87.4472Z" fill="#FFFCFF"/>
<path d="M96.3281 0.308594V13.2695C96.3281 14.5656 96.6435 15.5634 97.2743 16.2629C97.9051 16.9624 98.8309 17.3121 100.052 17.3121C101.273 17.3121 102.209 16.9624 102.86 16.2629C103.511 15.5634 103.837 14.5656 103.837 13.2695V0.308594H109.056V13.2387C109.056 15.1725 108.649 16.8081 107.835 18.1453C107.021 19.4826 105.922 20.4906 104.539 21.1695C103.175 21.8485 101.649 22.1879 99.9603 22.1879C98.2714 22.1879 96.7554 21.8587 95.4125 21.2004C94.0899 20.5215 93.0419 19.5134 92.2687 18.1762C91.4955 16.8184 91.1089 15.1725 91.1089 13.2387V0.308594H96.3281Z" fill="#FFFCFF"/>
<path d="M120.473 22.1879C118.907 22.1879 117.503 21.9307 116.261 21.4164C115.02 20.9021 114.023 20.1409 113.27 19.1328C112.538 18.1248 112.151 16.9109 112.11 15.4914H117.665C117.747 16.2938 118.021 16.9109 118.489 17.343C118.957 17.7544 119.568 17.9602 120.321 17.9602C121.094 17.9602 121.704 17.7853 122.152 17.4356C122.6 17.0652 122.824 16.5612 122.824 15.9234C122.824 15.3886 122.64 14.9462 122.274 14.5965C121.928 14.2468 121.491 13.9587 120.962 13.7324C120.453 13.5061 119.72 13.249 118.764 12.9609C117.38 12.5289 116.251 12.0969 115.376 11.6649C114.501 11.2328 113.748 10.5951 113.118 9.75157C112.487 8.90808 112.171 7.80743 112.171 6.44961C112.171 4.43347 112.894 2.85964 114.338 1.72813C115.783 0.576042 117.665 0 119.985 0C122.345 0 124.248 0.576042 125.693 1.72813C127.137 2.85964 127.911 4.44375 128.012 6.48047H122.366C122.325 5.78099 122.071 5.23581 121.603 4.84492C121.135 4.43347 120.534 4.22774 119.802 4.22774C119.171 4.22774 118.662 4.40261 118.276 4.75235C117.889 5.08151 117.696 5.56498 117.696 6.20274C117.696 6.90222 118.021 7.4474 118.673 7.83829C119.324 8.22917 120.341 8.65092 121.725 9.10352C123.108 9.5767 124.228 10.0293 125.082 10.4613C125.957 10.8934 126.71 11.5208 127.341 12.3438C127.972 13.1667 128.287 14.2262 128.287 15.5223C128.287 16.7567 127.972 17.8779 127.341 18.886C126.73 19.894 125.835 20.6964 124.655 21.293C123.475 21.8896 122.081 22.1879 120.473 22.1879Z" fill="#FFFCFF"/>
<path d="M136.718 0.308594V21.9719H131.499V0.308594H136.718Z" fill="#FFFCFF"/>
<path d="M139.615 11.1094C139.615 8.9698 140.073 7.0668 140.989 5.40039C141.905 3.71341 143.176 2.40703 144.804 1.48125C146.452 0.534895 148.314 0.061718 150.39 0.061718C152.933 0.061718 155.11 0.740625 156.921 2.09844C158.732 3.45625 159.943 5.30782 160.553 7.65313H154.815C154.388 6.74792 153.778 6.05873 152.984 5.58555C152.211 5.11237 151.326 4.87578 150.329 4.87578C148.721 4.87578 147.419 5.44154 146.422 6.57305C145.425 7.70456 144.926 9.21667 144.926 11.1094C144.926 13.0021 145.425 14.5142 146.422 15.6457C147.419 16.7772 148.721 17.343 150.329 17.343C151.326 17.343 152.211 17.1064 152.984 16.6332C153.778 16.16 154.388 15.4708 154.815 14.5656H160.553C159.943 16.9109 158.732 18.7625 156.921 20.1203C155.11 21.4576 152.933 22.1262 150.39 22.1262C148.314 22.1262 146.452 21.6633 144.804 20.7375C143.176 19.7912 141.905 18.4848 140.989 16.8184C140.073 15.152 139.615 13.249 139.615 11.1094Z" fill="#FFFCFF"/>
<path d="M68.4015 34.3484V38.7305H75.3911V42.8039H68.4015V47.5562H76.3067V51.784H63.1823V30.1207H76.3067V34.3484H68.4015Z" fill="#FFFCFF"/>
<path d="M98.8629 51.784H93.6436L84.9144 38.4219V51.784H79.6951V30.1207H84.9144L93.6436 43.5445V30.1207H98.8629V51.784Z" fill="#FFFCFF"/>
<path d="M118.06 30.1207V34.3484H112.383V51.784H107.163V34.3484H101.486V30.1207H118.06Z" fill="#FFFCFF"/>
<path d="M139.236 30.1207V51.784H134.017V42.8656H125.898V51.784H120.679V30.1207H125.898V38.607H134.017V30.1207H139.236Z" fill="#FFFCFF"/>
<path d="M148.132 30.1207V43.0816C148.132 44.3777 148.447 45.3755 149.078 46.075C149.709 46.7745 150.635 47.1242 151.856 47.1242C153.077 47.1242 154.013 46.7745 154.664 46.075C155.315 45.3755 155.64 44.3777 155.64 43.0816V30.1207H160.86V43.0508C160.86 44.9846 160.453 46.6202 159.639 47.9574C158.825 49.2947 157.726 50.3027 156.342 50.9816C154.979 51.6605 153.453 52 151.764 52C150.075 52 148.559 51.6708 147.216 51.0125C145.894 50.3336 144.846 49.3255 144.073 47.9883C143.299 46.6305 142.913 44.9846 142.913 43.0508V30.1207H148.132Z" fill="#FFFCFF"/>
<path d="M172.277 52C170.71 52 169.306 51.7428 168.065 51.2285C166.824 50.7142 165.827 49.953 165.074 48.9449C164.341 47.9368 163.955 46.723 163.914 45.3035H169.469C169.551 46.1059 169.825 46.723 170.293 47.1551C170.761 47.5665 171.372 47.7723 172.125 47.7723C172.898 47.7723 173.508 47.5974 173.956 47.2477C174.404 46.8773 174.627 46.3733 174.627 45.7355C174.627 45.2006 174.444 44.7583 174.078 44.4086C173.732 44.0589 173.295 43.7708 172.766 43.5445C172.257 43.3182 171.524 43.0611 170.568 42.773C169.184 42.341 168.055 41.909 167.18 41.4769C166.305 41.0449 165.552 40.4072 164.921 39.5637C164.291 38.7202 163.975 37.6195 163.975 36.2617C163.975 34.2456 164.698 32.6717 166.142 31.5402C167.587 30.3881 169.469 29.8121 171.789 29.8121C174.149 29.8121 176.052 30.3881 177.496 31.5402C178.941 32.6717 179.714 34.2558 179.816 36.2926H174.17C174.129 35.5931 173.875 35.0479 173.407 34.657C172.939 34.2456 172.338 34.0398 171.606 34.0398C170.975 34.0398 170.466 34.2147 170.08 34.5644C169.693 34.8936 169.5 35.3771 169.5 36.0148C169.5 36.7143 169.825 37.2595 170.476 37.6504C171.128 38.0413 172.145 38.463 173.529 38.9156C174.912 39.3888 176.031 39.8414 176.886 40.2734C177.761 40.7055 178.514 41.3329 179.145 42.1559C179.775 42.9788 180.091 44.0383 180.091 45.3344C180.091 46.5687 179.775 47.69 179.145 48.698C178.534 49.7061 177.639 50.5085 176.459 51.1051C175.279 51.7017 173.885 52 172.277 52Z" fill="#FFFCFF"/>
<path d="M188.522 30.1207V51.784H183.303V30.1207H188.522Z" fill="#FFFCFF"/>
<path d="M205.642 47.9574H197.646L196.364 51.784H190.9L198.653 30.1207H204.696L212.449 51.784H206.924L205.642 47.9574ZM204.299 43.884L201.644 35.9531L199.019 43.884H204.299Z" fill="#FFFCFF"/>
<path d="M222.561 52C220.994 52 219.59 51.7428 218.349 51.2285C217.108 50.7142 216.111 49.953 215.358 48.9449C214.625 47.9368 214.239 46.723 214.198 45.3035H219.753C219.834 46.1059 220.109 46.723 220.577 47.1551C221.045 47.5665 221.655 47.7723 222.408 47.7723C223.181 47.7723 223.792 47.5974 224.24 47.2477C224.687 46.8773 224.911 46.3733 224.911 45.7355C224.911 45.2006 224.728 44.7583 224.362 44.4086C224.016 44.0589 223.578 43.7708 223.049 43.5445C222.541 43.3182 221.808 43.0611 220.852 42.773C219.468 42.341 218.339 41.909 217.464 41.4769C216.589 41.0449 215.836 40.4072 215.205 39.5637C214.574 38.7202 214.259 37.6195 214.259 36.2617C214.259 34.2456 214.981 32.6717 216.426 31.5402C217.871 30.3881 219.753 29.8121 222.073 29.8121C224.433 29.8121 226.335 30.3881 227.78 31.5402C229.225 32.6717 229.998 34.2558 230.1 36.2926H224.453C224.413 35.5931 224.158 35.0479 223.69 34.657C223.222 34.2456 222.622 34.0398 221.889 34.0398C221.259 34.0398 220.75 34.2147 220.363 34.5644C219.977 34.8936 219.783 35.3771 219.783 36.0148C219.783 36.7143 220.109 37.2595 220.76 37.6504C221.411 38.0413 222.429 38.463 223.812 38.9156C225.196 39.3888 226.315 39.8414 227.17 40.2734C228.045 40.7055 228.798 41.3329 229.428 42.1559C230.059 42.9788 230.374 44.0383 230.374 45.3344C230.374 46.5687 230.059 47.69 229.428 48.698C228.818 49.7061 227.923 50.5085 226.742 51.1051C225.562 51.7017 224.168 52 222.561 52Z" fill="#FFFCFF"/>
<path d="M249 30.1207V34.3484H243.323V51.784H238.104V34.3484H232.427V30.1207H249Z" fill="#FFFCFF"/>
</svg>
