<svg width="40" height="40" viewBox="0 0 40 40" fill="none" xmlns="http://www.w3.org/2000/svg">
<path d="M18.3368 30.0519C18.3217 30.281 18.3535 30.5109 18.4303 30.7272C18.5072 30.9435 18.6274 31.1416 18.7834 31.3093C18.9395 31.477 19.1282 31.6107 19.3378 31.7021C19.5473 31.7935 19.7733 31.8407 20.0018 31.8407C20.2302 31.8407 20.4562 31.7935 20.6658 31.7021C20.8754 31.6107 21.064 31.477 21.2201 31.3093C21.3762 31.1416 21.4964 30.9435 21.5732 30.7272C21.65 30.5109 21.6819 30.281 21.6668 30.0519V9.94817C21.6819 9.719 21.65 9.48914 21.5732 9.27284C21.4964 9.05654 21.3762 8.8584 21.2201 8.6907C21.064 8.523 20.8754 8.38932 20.6658 8.29792C20.4562 8.20652 20.2302 8.15936 20.0018 8.15936C19.7733 8.15936 19.5473 8.20652 19.3378 8.29792C19.1282 8.38932 18.9395 8.523 18.7834 8.6907C18.6274 8.8584 18.5072 9.05654 18.4303 9.27284C18.3535 9.48914 18.3217 9.719 18.3368 9.94817V30.0519Z" fill="#FFFCFF"/>
<path d="M1.67231 9.94818C1.22976 9.94818 0.805328 10.1249 0.492395 10.4396C0.179463 10.7542 0.00365945 11.181 0.00365945 11.6259V28.3741C-0.0114607 28.6033 0.0203804 28.8331 0.0972102 29.0494C0.17404 29.2657 0.294222 29.4639 0.450312 29.6316C0.606402 29.7993 0.795075 29.933 1.00464 30.0244C1.21421 30.1158 1.44021 30.1629 1.66865 30.1629C1.89708 30.1629 2.12308 30.1158 2.33265 30.0244C2.54222 29.933 2.7309 29.7993 2.88699 29.6316C3.04308 29.4639 3.16326 29.2657 3.24009 29.0494C3.31692 28.8331 3.34876 28.6033 3.33364 28.3741V11.6259C3.33364 11.1822 3.15884 10.7566 2.84749 10.4422C2.53614 10.1277 2.11359 9.95013 1.67231 9.94818Z" fill="#FFFCFF"/>
<path d="M15.8339 26.7037V13.2963C15.8059 12.8715 15.6183 12.4733 15.3091 12.1824C14.9999 11.8914 14.5923 11.7296 14.1689 11.7296C13.7455 11.7296 13.3379 11.8914 13.0287 12.1824C12.7195 12.4733 12.5319 12.8715 12.5039 13.2963V26.7037C12.5319 27.1285 12.7195 27.5267 13.0287 27.8176C13.3379 28.1085 13.7455 28.2704 14.1689 28.2704C14.5923 28.2704 14.9999 28.1085 15.3091 27.8176C15.6183 27.5267 15.8059 27.1285 15.8339 26.7037Z" fill="#FFFCFF"/>
<path d="M8.33223 25.0259C8.77478 25.0259 9.19921 24.8492 9.51214 24.5345C9.82507 24.2199 10.0009 23.7931 10.0009 23.3482V16.6518C10.016 16.4227 9.98415 16.1928 9.90732 15.9765C9.83049 15.7602 9.71031 15.5621 9.55422 15.3944C9.39813 15.2267 9.20946 15.093 8.99989 15.0016C8.79032 14.9102 8.56432 14.863 8.33589 14.863C8.10745 14.863 7.88145 14.9102 7.67188 15.0016C7.46231 15.093 7.27364 15.2267 7.11755 15.3944C6.96146 15.5621 6.84128 15.7602 6.76445 15.9765C6.68762 16.1928 6.65578 16.4227 6.6709 16.6518V23.3482C6.67089 23.7919 6.84569 24.2175 7.15704 24.5319C7.46839 24.8464 7.89094 25.024 8.33223 25.0259Z" fill="#FFFCFF"/>
<path d="M27.4998 26.7037V13.2963C27.4718 12.8715 27.2841 12.4733 26.975 12.1824C26.6658 11.8914 26.2582 11.7296 25.8348 11.7296C25.4114 11.7296 25.0038 11.8914 24.6946 12.1824C24.3854 12.4733 24.1978 12.8715 24.1698 13.2963V26.7037C24.1978 27.1285 24.3854 27.5267 24.6946 27.8176C25.0038 28.1085 25.4114 28.2704 25.8348 28.2704C26.2582 28.2704 26.6658 28.1085 26.975 27.8176C27.2841 27.5267 27.4718 27.1285 27.4998 26.7037Z" fill="#FFFCFF"/>
<path d="M38.3314 9.94818C37.8888 9.94818 37.4644 10.1249 37.1515 10.4396C36.8385 10.7542 36.6627 11.181 36.6627 11.6259V28.3741C36.6627 28.8191 36.8385 29.2458 37.1515 29.5605C37.4644 29.8751 37.8888 30.0519 38.3314 30.0519C38.7739 30.0519 39.1983 29.8751 39.5113 29.5605C39.8242 29.2458 40 28.8191 40 28.3741V11.6259C40 11.181 39.8242 10.7542 39.5113 10.4396C39.1983 10.1249 38.7739 9.94818 38.3314 9.94818Z" fill="#FFFCFF"/>
<path d="M31.664 14.9741C31.224 14.978 30.8033 15.1565 30.4936 15.4707C30.1838 15.7849 30.01 16.2094 30.01 16.6519V23.3482C30.01 23.7931 30.1858 24.2199 30.4987 24.5345C30.8117 24.8492 31.2361 25.0259 31.6787 25.0259C32.1212 25.0259 32.5456 24.8492 32.8586 24.5345C33.1715 24.2199 33.3473 23.7931 33.3473 23.3482V16.6519C33.3473 16.4303 33.3037 16.2109 33.2189 16.0064C33.1341 15.8019 33.0099 15.6163 32.8534 15.4603C32.6969 15.3043 32.5112 15.181 32.3071 15.0976C32.1029 15.0141 31.8844 14.9722 31.664 14.9741Z" fill="#FFFCFF"/>
<path d="M18.3368 38.4333C18.3648 38.8581 18.5524 39.2563 18.8616 39.5472C19.1707 39.8382 19.5783 40 20.0018 40C20.4252 40 20.8328 39.8382 21.142 39.5472C21.4511 39.2563 21.6387 38.8581 21.6668 38.4333V36.7555C21.6819 36.5264 21.65 36.2965 21.5732 36.0802C21.4964 35.8639 21.3762 35.6658 21.2201 35.4981C21.064 35.3304 20.8754 35.1967 20.6658 35.1053C20.4562 35.0139 20.2302 34.9667 20.0018 34.9667C19.7733 34.9667 19.5473 35.0139 19.3378 35.1053C19.1282 35.1967 18.9395 35.3304 18.7834 35.4981C18.6274 35.6658 18.5072 35.8639 18.4303 36.0802C18.3535 36.2965 18.3217 36.5264 18.3368 36.7555V38.4333Z" fill="#FFFCFF"/>
<path d="M19.9982 4.92223C20.4408 4.92223 20.8652 4.74547 21.1782 4.43082C21.4911 4.11618 21.6669 3.68944 21.6669 3.24447V1.56671C21.6389 1.1419 21.4513 0.743685 21.1421 0.452771C20.8329 0.161857 20.4253 0 20.0019 0C19.5785 0 19.1709 0.161857 18.8617 0.452771C18.5525 0.743685 18.3649 1.1419 18.3369 1.56671V3.24447C18.3369 3.68817 18.5117 4.1138 18.8231 4.42823C19.1344 4.74266 19.557 4.92028 19.9982 4.92223Z" fill="#FFFCFF"/>
</svg>
