<svg width="247" height="55" viewBox="0 0 247 55" fill="none" xmlns="http://www.w3.org/2000/svg">
<path d="M86.7261 3.92682V25H81.5929V12.3621L76.8799 25H72.7373L67.9944 12.3321V25H62.8612V3.92682H68.925L74.8387 18.5159L80.6923 3.92682H86.7261ZM95.4606 3.92682V16.5347C95.4606 17.7955 95.7708 18.7661 96.3912 19.4465C97.0116 20.127 97.9222 20.4672 99.1229 20.4672C100.324 20.4672 101.244 20.127 101.885 19.4465C102.525 18.7661 102.845 17.7955 102.845 16.5347V3.92682H107.978V16.5047C107.978 18.3859 107.578 19.9769 106.778 21.2777C105.977 22.5785 104.897 23.5591 103.536 24.2195C102.195 24.8799 100.694 25.2101 99.0328 25.2101C97.3718 25.2101 95.8809 24.8899 94.56 24.2495C93.2592 23.5891 92.2286 22.6085 91.4681 21.3077C90.7076 19.9869 90.3274 18.3859 90.3274 16.5047V3.92682H95.4606ZM119.208 25.2101C117.667 25.2101 116.286 24.96 115.065 24.4597C113.844 23.9593 112.864 23.2189 112.123 22.2383C111.403 21.2577 111.023 20.0769 110.983 18.6961H116.446C116.526 19.4765 116.796 20.0769 117.257 20.4972C117.717 20.8974 118.317 21.0976 119.058 21.0976C119.818 21.0976 120.419 20.9275 120.859 20.5872C121.299 20.227 121.519 19.7367 121.519 19.1163C121.519 18.596 121.339 18.1657 120.979 17.8255C120.639 17.4853 120.208 17.2051 119.688 16.985C119.188 16.7648 118.467 16.5147 117.527 16.2345C116.166 15.8143 115.055 15.394 114.195 14.9737C113.334 14.5535 112.594 13.9331 111.973 13.1126C111.353 12.2921 111.043 11.2214 111.043 9.90056C111.043 7.93933 111.753 6.40837 113.174 5.30769C114.595 4.18699 116.446 3.62664 118.728 3.62664C121.049 3.62664 122.92 4.18699 124.341 5.30769C125.762 6.40837 126.522 7.94934 126.622 9.93058H121.069C121.029 9.25015 120.779 8.71982 120.318 8.33958C119.858 7.93933 119.268 7.73921 118.547 7.73921C117.927 7.73921 117.427 7.90931 117.046 8.24953C116.666 8.56973 116.476 9.04002 116.476 9.66041C116.476 10.3408 116.796 10.8712 117.437 11.2514C118.077 11.6316 119.078 12.0419 120.439 12.4822C121.799 12.9425 122.9 13.3827 123.741 13.803C124.601 14.2233 125.342 14.8336 125.962 15.6341C126.582 16.4346 126.893 17.4653 126.893 18.7261C126.893 19.9268 126.582 21.0175 125.962 21.9981C125.362 22.9787 124.481 23.7592 123.32 24.3396C122.16 24.9199 120.789 25.2101 119.208 25.2101ZM135.185 3.92682V25H130.052V3.92682H135.185ZM138.034 14.4334C138.034 12.3521 138.485 10.5009 139.385 8.87992C140.286 7.23889 141.536 5.9681 143.137 5.06754C144.758 4.14696 146.59 3.68667 148.631 3.68667C151.132 3.68667 153.274 4.34708 155.055 5.66791C156.836 6.98874 158.027 8.78986 158.627 11.0713H152.984C152.563 10.1907 151.963 9.52032 151.182 9.06003C150.422 8.59974 149.551 8.3696 148.571 8.3696C146.99 8.3696 145.709 8.91994 144.728 10.0206C143.748 11.1213 143.258 12.5922 143.258 14.4334C143.258 16.2745 143.748 17.7455 144.728 18.8462C145.709 19.9468 146.99 20.4972 148.571 20.4972C149.551 20.4972 150.422 20.267 151.182 19.8068C151.963 19.3465 152.563 18.676 152.984 17.7955H158.627C158.027 20.0769 156.836 21.878 155.055 23.1989C153.274 24.4997 151.132 25.1501 148.631 25.1501C146.59 25.1501 144.758 24.6998 143.137 23.7992C141.536 22.8787 140.286 21.6079 139.385 19.9869C138.485 18.3659 138.034 16.5147 138.034 14.4334ZM67.9944 37.0394V41.3021H74.8687V45.2645H67.9944V49.8874H75.7692V54H62.8612V32.9268H75.7692V37.0394H67.9944ZM97.9536 54H92.8204L84.235 41.0019V54H79.1018V32.9268H84.235L92.8204 45.985V32.9268H97.9536V54ZM116.834 32.9268V37.0394H111.25V54H106.117V37.0394H100.534V32.9268H116.834ZM137.662 32.9268V54H132.528V45.3246H124.543V54H119.41V32.9268H124.543V41.182H132.528V32.9268H137.662ZM146.41 32.9268V45.5347C146.41 46.7955 146.721 47.7661 147.341 48.4465C147.961 49.127 148.872 49.4672 150.073 49.4672C151.273 49.4672 152.194 49.127 152.834 48.4465C153.475 47.7661 153.795 46.7955 153.795 45.5347V32.9268H158.928V45.5047C158.928 47.3859 158.528 48.9769 157.728 50.2777C156.927 51.5785 155.846 52.5591 154.485 53.2195C153.145 53.8799 151.644 54.2101 149.983 54.2101C148.322 54.2101 146.831 53.8899 145.51 53.2495C144.209 52.5891 143.178 51.6085 142.418 50.3077C141.657 48.9869 141.277 47.3859 141.277 45.5047V32.9268H146.41ZM170.158 54.2101C168.617 54.2101 167.236 53.96 166.015 53.4597C164.794 52.9593 163.814 52.2189 163.073 51.2383C162.353 50.2577 161.973 49.0769 161.932 47.6961H167.396C167.476 48.4765 167.746 49.0769 168.206 49.4972C168.667 49.8974 169.267 50.0976 170.008 50.0976C170.768 50.0976 171.368 49.9275 171.809 49.5872C172.249 49.227 172.469 48.7367 172.469 48.1163C172.469 47.596 172.289 47.1657 171.929 46.8255C171.589 46.4853 171.158 46.2051 170.638 45.985C170.138 45.7648 169.417 45.5147 168.477 45.2345C167.116 44.8143 166.005 44.394 165.144 43.9737C164.284 43.5535 163.543 42.9331 162.923 42.1126C162.303 41.2921 161.993 40.2214 161.993 38.9006C161.993 36.9393 162.703 35.4084 164.124 34.3077C165.545 33.187 167.396 32.6266 169.677 32.6266C171.999 32.6266 173.87 33.187 175.291 34.3077C176.712 35.4084 177.472 36.9493 177.572 38.9306H172.019C171.979 38.2502 171.729 37.7198 171.268 37.3396C170.808 36.9393 170.218 36.7392 169.497 36.7392C168.877 36.7392 168.377 36.9093 167.996 37.2495C167.616 37.5697 167.426 38.04 167.426 38.6604C167.426 39.3408 167.746 39.8712 168.387 40.2514C169.027 40.6316 170.028 41.0419 171.388 41.4822C172.749 41.9425 173.85 42.3827 174.69 42.803C175.551 43.2233 176.291 43.8336 176.912 44.6341C177.532 45.4346 177.842 46.4653 177.842 47.7261C177.842 48.9268 177.532 50.0175 176.912 50.9981C176.311 51.9787 175.431 52.7592 174.27 53.3396C173.109 53.9199 171.739 54.2101 170.158 54.2101ZM186.135 32.9268V54H181.001V32.9268H186.135ZM202.973 50.2777H195.108L193.847 54H188.474L196.099 32.9268H202.042L209.667 54H204.234L202.973 50.2777ZM201.652 46.3152L199.04 38.6004L196.459 46.3152H201.652ZM219.612 54.2101C218.071 54.2101 216.691 53.96 215.47 53.4597C214.249 52.9593 213.268 52.2189 212.528 51.2383C211.808 50.2577 211.427 49.0769 211.387 47.6961H216.851C216.931 48.4765 217.201 49.0769 217.661 49.4972C218.121 49.8974 218.722 50.0976 219.462 50.0976C220.223 50.0976 220.823 49.9275 221.263 49.5872C221.704 49.227 221.924 48.7367 221.924 48.1163C221.924 47.596 221.744 47.1657 221.383 46.8255C221.043 46.4853 220.613 46.2051 220.093 45.985C219.592 45.7648 218.872 45.5147 217.931 45.2345C216.57 44.8143 215.46 44.394 214.599 43.9737C213.739 43.5535 212.998 42.9331 212.378 42.1126C211.757 41.2921 211.447 40.2214 211.447 38.9006C211.447 36.9393 212.158 35.4084 213.579 34.3077C214.999 33.187 216.851 32.6266 219.132 32.6266C221.454 32.6266 223.325 33.187 224.746 34.3077C226.166 35.4084 226.927 36.9493 227.027 38.9306H221.474C221.434 38.2502 221.183 37.7198 220.723 37.3396C220.263 36.9393 219.672 36.7392 218.952 36.7392C218.332 36.7392 217.831 36.9093 217.451 37.2495C217.071 37.5697 216.881 38.04 216.881 38.6604C216.881 39.3408 217.201 39.8712 217.841 40.2514C218.482 40.6316 219.482 41.0419 220.843 41.4822C222.204 41.9425 223.305 42.3827 224.145 42.803C225.006 43.2233 225.746 43.8336 226.367 44.6341C226.987 45.4346 227.297 46.4653 227.297 47.7261C227.297 48.9268 226.987 50.0175 226.367 50.9981C225.766 51.9787 224.886 52.7592 223.725 53.3396C222.564 53.9199 221.193 54.2101 219.612 54.2101ZM245.616 32.9268V37.0394H240.032V54H234.899V37.0394H229.315V32.9268H245.616Z" fill="#0D1821"/>
<path d="M17.0206 3.92682V8.03939H11.4372V25H6.30394V8.03939H0.72045V3.92682H17.0206ZM37.8483 3.92682V25H32.7151V16.3246H24.7301V25H19.5969V3.92682H24.7301V12.182H32.7151V3.92682H37.8483ZM46.6872 8.03939V12.3021H53.5615V16.2645H46.6872V20.8874H54.462V25H41.554V3.92682H54.462V8.03939H46.6872Z" fill="#0D1821"/>
</svg>
