<svg width="35" height="35" viewBox="0 0 35 35" fill="none" xmlns="http://www.w3.org/2000/svg">
<path d="M16.0447 26.2954C16.0315 26.4959 16.0593 26.6971 16.1266 26.8863C16.1938 27.0756 16.2989 27.249 16.4355 27.3957C16.5721 27.5424 16.7372 27.6594 16.9206 27.7394C17.1039 27.8194 17.3017 27.8606 17.5016 27.8606C17.7015 27.8606 17.8992 27.8194 18.0826 27.7394C18.2659 27.6594 18.431 27.5424 18.5676 27.3957C18.7042 27.249 18.8094 27.0756 18.8766 26.8863C18.9438 26.6971 18.9717 26.4959 18.9584 26.2954V8.70468C18.9717 8.50414 18.9438 8.30302 18.8766 8.11376C18.8094 7.92449 18.7042 7.75112 18.5676 7.60439C18.431 7.45765 18.2659 7.34067 18.0826 7.2607C17.8992 7.18073 17.7015 7.13947 17.5016 7.13947C17.3017 7.13947 17.1039 7.18073 16.9206 7.2607C16.7372 7.34067 16.5721 7.45765 16.4355 7.60439C16.2989 7.75112 16.1938 7.92449 16.1266 8.11376C16.0593 8.30302 16.0315 8.50414 16.0447 8.70468V26.2954Z" fill="#0D1821"/>
<path d="M1.46327 8.70465C1.07604 8.70465 0.704662 8.85932 0.430846 9.13463C0.15703 9.40994 0.00320201 9.78334 0.00320201 10.1727V24.8273C-0.0100281 25.0279 0.0178328 25.229 0.0850589 25.4183C0.152285 25.6075 0.257445 25.7809 0.394023 25.9276C0.530602 26.0744 0.695691 26.1913 0.879064 26.2713C1.06244 26.3513 1.26019 26.3926 1.46007 26.3926C1.65995 26.3926 1.8577 26.3513 2.04107 26.2713C2.22444 26.1913 2.38953 26.0744 2.52611 25.9276C2.66269 25.7809 2.76785 25.6075 2.83508 25.4183C2.9023 25.229 2.93016 25.0279 2.91693 24.8273V10.1727C2.91694 9.78446 2.76399 9.41203 2.49156 9.1369C2.21912 8.86177 1.84939 8.70635 1.46327 8.70465Z" fill="#0D1821"/>
<path d="M13.8546 23.3657V11.6342C13.8301 11.2625 13.666 10.9141 13.3955 10.6595C13.1249 10.405 12.7683 10.2634 12.3978 10.2634C12.0273 10.2634 11.6706 10.405 11.4001 10.6595C11.1296 10.9141 10.9654 11.2625 10.9409 11.6342V23.3657C10.9654 23.7374 11.1296 24.0858 11.4001 24.3404C11.6706 24.5949 12.0273 24.7366 12.3978 24.7366C12.7683 24.7366 13.1249 24.5949 13.3955 24.3404C13.666 24.0858 13.8301 23.7374 13.8546 23.3657Z" fill="#0D1821"/>
<path d="M7.29061 21.8977C7.67784 21.8977 8.04921 21.7431 8.32303 21.4677C8.59685 21.1924 8.75067 20.819 8.75067 20.4297V14.5704C8.7639 14.3699 8.73604 14.1687 8.66882 13.9795C8.60159 13.7902 8.49643 13.6168 8.35985 13.4701C8.22327 13.3234 8.05819 13.2064 7.87481 13.1264C7.69144 13.0465 7.49369 13.0052 7.29381 13.0052C7.09393 13.0052 6.89618 13.0465 6.7128 13.1264C6.52943 13.2064 6.36434 13.3234 6.22776 13.4701C6.09118 13.6168 5.98603 13.7902 5.9188 13.9795C5.85157 14.1687 5.82371 14.3699 5.83694 14.5704V20.4297C5.83694 20.8179 5.98989 21.1903 6.26232 21.4655C6.53475 21.7406 6.90448 21.896 7.29061 21.8977Z" fill="#0D1821"/>
<path d="M24.0624 23.3657V11.6342C24.0379 11.2625 23.8737 10.9141 23.6032 10.6595C23.3327 10.405 22.9761 10.2634 22.6055 10.2634C22.235 10.2634 21.8784 10.405 21.6079 10.6595C21.3374 10.9141 21.1732 11.2625 21.1487 11.6342V23.3657C21.1732 23.7374 21.3374 24.0858 21.6079 24.3404C21.8784 24.5949 22.235 24.7366 22.6055 24.7366C22.9761 24.7366 23.3327 24.5949 23.6032 24.3404C23.8737 24.0858 24.0379 23.7374 24.0624 23.3657Z" fill="#0D1821"/>
<path d="M33.5399 8.70465C33.1527 8.70465 32.7813 8.85932 32.5075 9.13463C32.2337 9.40994 32.0798 9.78334 32.0798 10.1727V24.8273C32.0798 25.2167 32.2337 25.5901 32.5075 25.8654C32.7813 26.1407 33.1527 26.2954 33.5399 26.2954C33.9271 26.2954 34.2985 26.1407 34.5723 25.8654C34.8461 25.5901 35 25.2167 35 24.8273V10.1727C35 9.78334 34.8461 9.40994 34.5723 9.13463C34.2985 8.85932 33.9271 8.70465 33.5399 8.70465Z" fill="#0D1821"/>
<path d="M27.7062 13.1024C27.3212 13.1057 26.9531 13.2619 26.682 13.5369C26.411 13.8118 26.2589 14.1833 26.2589 14.5704V20.4297C26.2589 20.819 26.4127 21.1924 26.6866 21.4677C26.9604 21.743 27.3317 21.8977 27.719 21.8977C28.1062 21.8977 28.4776 21.743 28.7514 21.4677C29.0252 21.1924 29.179 20.819 29.179 20.4297V14.5704C29.1791 14.3765 29.1409 14.1846 29.0667 14.0056C28.9925 13.8267 28.8838 13.6642 28.7469 13.5278C28.6099 13.3913 28.4475 13.2834 28.2688 13.2104C28.0902 13.1374 27.899 13.1007 27.7062 13.1024Z" fill="#0D1821"/>
<path d="M16.0447 33.6292C16.0692 34.0009 16.2334 34.3493 16.5039 34.6039C16.7744 34.8584 17.1311 35.0001 17.5016 35.0001C17.8721 35.0001 18.2287 34.8584 18.4992 34.6039C18.7698 34.3493 18.9339 34.0009 18.9584 33.6292V32.1612C18.9717 31.9606 18.9438 31.7595 18.8766 31.5702C18.8094 31.381 18.7042 31.2076 18.5676 31.0609C18.431 30.9141 18.2659 30.7972 18.0826 30.7172C17.8992 30.6372 17.7015 30.5959 17.5016 30.5959C17.3017 30.5959 17.1039 30.6372 16.9206 30.7172C16.7372 30.7972 16.5721 30.9141 16.4355 31.0609C16.2989 31.2076 16.1938 31.381 16.1266 31.5702C16.0593 31.7595 16.0315 31.9606 16.0447 32.1612V33.6292Z" fill="#0D1821"/>
<path d="M17.4983 4.30695C17.8856 4.30695 18.2569 4.15228 18.5308 3.87697C18.8046 3.60166 18.9584 3.22826 18.9584 2.83891V1.37087C18.9339 0.99916 18.7697 0.650725 18.4992 0.396175C18.2287 0.141625 17.872 0 17.5015 0C17.131 0 16.7744 0.141625 16.5039 0.396175C16.2334 0.650725 16.0692 0.99916 16.0447 1.37087V2.83891C16.0447 3.22715 16.1976 3.59958 16.4701 3.8747C16.7425 4.14983 17.1122 4.30525 17.4983 4.30695Z" fill="#0D1821"/>
</svg>
