<?xml version="1.0" encoding="iso-8859-1"?>
<!-- Generator: Adobe Illustrator 19.0.0, SVG Export Plug-In . SVG Version: 6.00 Build 0)  -->
<svg version="1.1" id="Capa_1" xmlns="http://www.w3.org/2000/svg" xmlns:xlink="http://www.w3.org/1999/xlink" x="0px" y="0px"
	 viewBox="0 0 512 512" style="enable-background:new 0 0 512 512;" xml:space="preserve">
<g>
	<g>
		<path d="M233.653,139.195c26.716-8.287,44.665-32.648,44.665-60.619c0-28.811-23.44-52.25-52.251-52.25s-52.25,23.439-52.25,52.25
			v58.177l-21.913,6.797c-28.764,8.922-53.411,26.455-71.275,50.701S53.32,247.231,53.32,277.348
			c0,55.754,45.359,101.112,101.112,101.112c6.628,0,13.106-0.641,19.383-1.863v65.366c0,13.042-10.61,23.652-23.652,23.652
			s-23.653-10.61-23.653-23.652V424.41c0-5.538-4.491-10.029-10.029-10.029c-5.538,0-10.029,4.491-10.029,10.029v17.552
			c0,24.103,19.609,43.711,43.712,43.711s43.711-19.608,43.711-43.711v-71.512c36.212-15.4,61.671-51.335,61.671-93.103
			c0.002-33.781-27.481-61.265-61.261-61.265h-0.407v-64.55L233.653,139.195z M226.067,46.385c17.751,0,32.192,14.44,32.192,32.192
			c0,19.13-12.277,35.793-30.549,41.461l-33.833,10.495V78.577h-0.001C193.876,60.827,208.316,46.385,226.067,46.385z
			 M173.818,218.078h-0.001c-28.856,7.25-50.286,33.413-50.286,64.487c0,15.993,13.012,29.005,29.005,29.005
			c5.538,0,10.029-4.491,10.029-10.029s-4.491-10.029-10.029-10.029c-4.933,0-8.946-4.013-8.946-8.946
			c0-19.905,12.591-36.922,30.228-43.51v117.003c-6.212,1.529-12.705,2.342-19.383,2.342c-44.694,0-81.053-36.361-81.053-81.053
			c0-52.896,33.945-98.966,84.467-114.639l15.97-4.953V218.078z M194.283,236.142c22.721,0,41.205,18.485,41.205,41.205
			c0,30.386-16.806,56.92-41.612,70.794V236.142H194.283z"/>
	</g>
</g>
<g>
	<g>
		<path d="M72.88,411.455H10.029C4.491,411.455,0,415.946,0,421.484s4.491,10.029,10.029,10.029H72.88
			c5.538,0,10.029-4.491,10.029-10.029S78.419,411.455,72.88,411.455z"/>
	</g>
</g>
<g>
	<g>
		<path d="M45.466,347.267H10.029C4.491,347.267,0,351.758,0,357.296s4.491,10.029,10.029,10.029h35.437
			c5.538,0,10.029-4.491,10.029-10.029S51.004,347.267,45.466,347.267z"/>
	</g>
</g>
<g>
	<g>
		<path d="M27.748,283.079H10.029C4.491,283.079,0,287.57,0,293.108s4.491,10.029,10.029,10.029h17.719
			c5.538,0,10.029-4.491,10.029-10.029S33.286,283.079,27.748,283.079z"/>
	</g>
</g>
<g>
	<g>
		<path d="M27.748,218.891H10.029C4.491,218.891,0,223.382,0,228.92s4.491,10.029,10.029,10.029h17.719
			c5.538,0,10.029-4.491,10.029-10.029S33.286,218.891,27.748,218.891z"/>
	</g>
</g>
<g>
	<g>
		<path d="M63.185,154.703H10.029C4.491,154.703,0,159.194,0,164.732s4.491,10.029,10.029,10.029h53.156
			c5.538,0,10.029-4.491,10.029-10.029S68.723,154.703,63.185,154.703z"/>
	</g>
</g>
<g>
	<g>
		<path d="M80.904,90.515H10.029C4.491,90.515,0,95.006,0,100.544s4.491,10.029,10.029,10.029h70.875
			c5.538,0,10.029-4.491,10.029-10.029S86.442,90.515,80.904,90.515z"/>
	</g>
</g>
<g>
	<g>
		<path d="M80.904,26.327H10.029C4.491,26.327,0,30.818,0,36.356s4.491,10.029,10.029,10.029h70.875
			c5.538,0,10.029-4.491,10.029-10.029S86.442,26.327,80.904,26.327z"/>
	</g>
</g>
<g>
	<g>
		<path d="M501.971,411.455H268.288c-5.538,0-10.029,4.491-10.029,10.029s4.491,10.029,10.029,10.029h233.683
			c5.538,0,10.029-4.491,10.029-10.029S507.509,411.455,501.971,411.455z"/>
	</g>
</g>
<g>
	<g>
		<path d="M234.757,414.394c-1.865-1.866-4.452-2.939-7.09-2.939s-5.225,1.072-7.091,2.939c-1.865,1.866-2.939,4.453-2.939,7.091
			s1.072,5.225,2.939,7.09c1.865,1.865,4.453,2.94,7.091,2.94s5.225-1.073,7.09-2.94c1.865-1.865,2.94-4.452,2.94-7.09
			S236.623,416.259,234.757,414.394z"/>
	</g>
</g>
<g>
	<g>
		<path d="M501.971,347.267H297.949c-5.538,0-10.029,4.491-10.029,10.029s4.491,10.029,10.029,10.029h204.022
			c5.538,0,10.029-4.491,10.029-10.029S507.509,347.267,501.971,347.267z"/>
	</g>
</g>
<g>
	<g>
		<path d="M501.971,283.079H297.949c-5.538,0-10.029,4.491-10.029,10.029s4.491,10.029,10.029,10.029h204.022
			c5.538,0,10.029-4.491,10.029-10.029S507.509,283.079,501.971,283.079z"/>
	</g>
</g>
<g>
	<g>
		<path d="M501.971,218.891H297.949c-5.538,0-10.029,4.491-10.029,10.029s4.491,10.029,10.029,10.029h204.022
			c5.538,0,10.029-4.491,10.029-10.029S507.509,218.891,501.971,218.891z"/>
	</g>
</g>
<g>
	<g>
		<path d="M501.971,154.703H255.828c-5.538,0-10.029,4.491-10.029,10.029s4.491,10.029,10.029,10.029h246.143
			c5.538,0,10.029-4.491,10.029-10.029S507.509,154.703,501.971,154.703z"/>
	</g>
</g>
<g>
	<g>
		<path d="M501.971,90.515H351.028c-5.538,0-10.029,4.491-10.029,10.029s4.491,10.029,10.029,10.029h150.942
			c5.538,0,10.029-4.491,10.029-10.029S507.509,90.515,501.971,90.515z"/>
	</g>
</g>
<g>
	<g>
		<path d="M315.995,93.453c-1.864-1.865-4.452-2.939-7.09-2.939c-2.638,0-5.225,1.072-7.091,2.939s-2.939,4.453-2.939,7.091
			c0,2.638,1.072,5.225,2.939,7.09c1.865,1.866,4.453,2.94,7.091,2.94c2.638,0,5.225-1.073,7.09-2.94
			c1.865-1.864,2.94-4.452,2.94-7.09C318.934,97.906,317.861,95.319,315.995,93.453z"/>
	</g>
</g>
<g>
	<g>
		<path d="M501.971,26.327H320.514c-5.538,0-10.029,4.491-10.029,10.029s4.491,10.029,10.029,10.029h181.457
			c5.538,0,10.029-4.491,10.029-10.029S507.509,26.327,501.971,26.327z"/>
	</g>
</g>
<g>
</g>
<g>
</g>
<g>
</g>
<g>
</g>
<g>
</g>
<g>
</g>
<g>
</g>
<g>
</g>
<g>
</g>
<g>
</g>
<g>
</g>
<g>
</g>
<g>
</g>
<g>
</g>
<g>
</g>
</svg>
