<svg width="21" height="20" viewBox="0 0 21 20" fill="none" xmlns="http://www.w3.org/2000/svg">
<path d="M10.0656 0C4.5518 0 0.0655518 4.48625 0.0655518 10C0.0655518 15.5138 4.5518 20 10.0656 20C15.5793 20 20.0656 15.5138 20.0656 10C20.0656 4.48625 15.5793 0 10.0656 0ZM14.6531 14.435C14.5306 14.6088 14.3381 14.7013 14.1418 14.7013C14.0168 14.7013 13.8918 14.665 13.7831 14.5875C11.4393 12.94 7.54055 12.8488 4.90805 13.4625C4.5743 13.5413 4.23555 13.3313 4.15805 12.995C4.08055 12.6587 4.28805 12.3225 4.62555 12.2437C7.5193 11.5738 11.8443 11.6962 14.5006 13.565C14.7831 13.7638 14.8506 14.1525 14.6531 14.435ZM15.8731 11.9963C15.7506 12.1663 15.5593 12.2563 15.3656 12.2563C15.2381 12.2563 15.1118 12.2188 15.0006 12.1388C12.2818 10.1875 8.9418 9.7025 4.4843 10.6125C4.14805 10.6788 3.81555 10.4638 3.7468 10.125C3.6768 9.7875 3.89555 9.45625 4.23305 9.3875C9.0543 8.40375 12.7068 8.95375 15.7293 11.1225C16.0093 11.325 16.0743 11.715 15.8731 11.9963ZM17.1056 8.72125C16.9843 8.9 16.7868 8.995 16.5881 8.995C16.4668 8.995 16.3443 8.96 16.2368 8.8875C12.7906 6.54875 7.5518 6.5375 4.16055 7.7375C3.83555 7.85 3.47805 7.68125 3.36305 7.355C3.24805 7.03 3.41805 6.6725 3.7443 6.5575C7.43305 5.25375 13.1493 5.28125 16.9406 7.8525C17.2256 8.04625 17.2981 8.435 17.1056 8.72125Z" fill="#FFFCFF"/>
</svg>
