<svg width="21" height="17" viewBox="0 0 21 17" fill="none" xmlns="http://www.w3.org/2000/svg">
<path d="M20.5983 2.75686C19.8545 3.07809 19.062 3.29101 18.2358 3.39439C19.0858 2.8947 19.7345 2.10947 20.0395 1.16301C19.247 1.62824 18.372 1.95686 17.4395 2.14024C16.687 1.35132 15.6145 0.862701 14.4445 0.862701C12.1745 0.862701 10.347 2.67686 10.347 4.90086C10.347 5.22086 10.3745 5.52855 10.442 5.82147C7.03327 5.65778 4.01702 4.04916 1.99077 1.5987C1.63702 2.20301 1.42952 2.8947 1.42952 3.63932C1.42952 5.03747 2.16077 6.27686 3.25077 6.99439C2.59202 6.98209 1.94577 6.79378 1.39827 6.49716C1.39827 6.50947 1.39827 6.52547 1.39827 6.54147C1.39827 8.50332 2.81952 10.1329 4.68327 10.5082C4.34952 10.5981 3.98577 10.6412 3.60827 10.6412C3.34577 10.6412 3.08077 10.6264 2.83202 10.5722C3.36327 12.171 4.87077 13.3464 6.66327 13.3845C5.26827 14.459 3.49702 15.1064 1.57952 15.1064C1.24327 15.1064 0.920767 15.0916 0.598267 15.051C2.41452 16.2042 4.56702 16.8627 6.88827 16.8627C14.4333 16.8627 18.5583 10.7089 18.5583 5.3747C18.5583 5.19624 18.552 5.02393 18.5433 4.85286C19.357 4.28424 20.0408 3.57409 20.5983 2.75686Z" fill="#FFFCFF"/>
</svg>
