<svg width="21" height="14" viewBox="0 0 21 14" fill="none" xmlns="http://www.w3.org/2000/svg">
<path d="M19.281 1.35725C18.7385 0.444886 18.1497 0.277068 16.951 0.21325C15.7535 0.136432 12.7422 0.104523 10.1335 0.104523C7.51973 0.104523 4.50723 0.136432 3.31098 0.212068C2.11473 0.277068 1.52473 0.443704 0.977231 1.35725C0.418481 2.26843 0.130981 3.83789 0.130981 6.60098C0.130981 6.60334 0.130981 6.60452 0.130981 6.60452C0.130981 6.60689 0.130981 6.60807 0.130981 6.60807V6.61043C0.130981 9.3617 0.418481 10.943 0.977231 11.8447C1.52473 12.7571 2.11348 12.9225 3.30973 12.9993C4.50723 13.0655 7.51973 13.1045 10.1335 13.1045C12.7422 13.1045 15.7535 13.0655 16.9522 13.0005C18.151 12.9237 18.7397 12.7583 19.2822 11.8459C19.846 10.9442 20.131 9.36289 20.131 6.61161C20.131 6.61161 20.131 6.60807 20.131 6.6057C20.131 6.6057 20.131 6.60334 20.131 6.60216C20.131 3.83789 19.846 2.26843 19.281 1.35725ZM7.63098 10.15V3.05907L13.881 6.60452L7.63098 10.15Z" fill="#FFFCFF"/>
</svg>
